PathFileType	4	(x/y/z)	S01_M20_T10.trc
DataRate	CameraRate	NumFrames	NumMarkers	Units	OrigDataRate	OrigDataStartFrame	OrigNumFrames
240	240	7	51	mm	240	210	419
Frame#	Time	Sternum			R.Acromium			L.Acromium			Top.Head			R.ASIS			L.ASIS			R.PSIS			L.PSIS			R.Great.Tro			L.Great.Tro			R.Iliac.Crest			L.Iliac.Crest			V.Sacral			R.Thigh.Upper.Post			R.Thigh.Lower.Ant			R.Thigh.Lower.Post			R.Thigh.Upper.Ant			R.Knee.Lat			R.Knee.Med			R.Shank.Upper.Post			R.Shank.Lower.Ant			R.Shank.Lower.Post			R.Shank.Upper.Ant			R.Ankle.Lat			R.Ankle.Med			R.Heel.Upper			R.Heel.Med			R.Heel.Lat			R.Toe.Lat			R.Toe.Med			R.Toe.Tip			L.Thigh.Upper.Post			L.Thigh.Lower.Ant			L.Thigh.Lower.Post			L.Thigh.Upper.Ant			L.Knee.Lat			L.Knee.Med			L.Shank.Upper.Post			L.Shank.Lower.Ant			L.Shank.Lower.Post			L.Shank.Upper.Ant			L.Ankle.Lat			L.Ankle.Med			L.Heel.Upper			L.Heel.Med			L.Heel.Lat			L.Toe.Lat			L.Toe.Med			L.Toe.Tip			Cervical.Spine			Back			
		X1	Y1	Z1	X2	Y2	Z2	X3	Y3	Z3	X4	Y4	Z4	X5	Y5	Z5	X6	Y6	Z6	X7	Y7	Z7	X8	Y8	Z8	X9	Y9	Z9	X10	Y10	Z10	X11	Y11	Z11	X12	Y12	Z12	X13	Y13	Z13	X14	Y14	Z14	X15	Y15	Z15	X16	Y16	Z16	X17	Y17	Z17	X18	Y18	Z18	X19	Y19	Z19	X20	Y20	Z20	X21	Y21	Z21	X22	Y22	Z22	X23	Y23	Z23	X24	Y24	Z24	X25	Y25	Z25	X26	Y26	Z26	X27	Y27	Z27	X28	Y28	Z28	X29	Y29	Z29	X30	Y30	Z30	X31	Y31	Z31	X32	Y32	Z32	X33	Y33	Z33	X34	Y34	Z34	X35	Y35	Z35	X36	Y36	Z36	X37	Y37	Z37	X38	Y38	Z38	X39	Y39	Z39	X40	Y40	Z40	X41	Y41	Z41	X42	Y42	Z42	X43	Y43	Z43	X44	Y44	Z44	X45	Y45	Z45	X46	Y46	Z46	X47	Y47	Z47	X48	Y48	Z48	X49	Y49	Z49	X50	Y50	Z50	X51	Y51	Z51	

210	0.87083	-80.601	1275.1	284.61	-165.87	1518.9	480.27	-217.39	1552	159.67	-147.19	1849.3	320.2	-130.41	1016.4	439.42	-132.63	1024.5	172.7	-368.45	1072.2	345.68	-370.99	1066.3	243.68	-216.13	968.42	517.14	-234.39	978.1	90.166	-211.96	1116.6	508.64	-244.21	1111.6	103.76	-383.78	1032.6	293	-288.73	670.04	481.04	-235.73	588.86	446.61	-303.91	584.75	458.64	-216.45	674.9	470.45	-301.65	516.98	448.34	-300.4	525.19	302.8	-394.56	373.6	463.81	-354.33	281.72	416.41	-414.49	306.59	448.76	-337.63	350.74	437.34	-458.25	107.82	400.65	-426.14	114.07	308.16	-531.46	82.455	340.27	-516.95	52.389	312.06	-522.34	52.48	376.48	-334.28	34.828	438.7	-300.08	40.423	313.71	-236.77	52.153	369.9	-145.87	696.82	106.59	-39.958	667.79	94.282	-96.894	621.06	123.24	-97.521	742.53	78.236	-14.584	568.98	105.4	21.862	579.18	248.86	-31.46	427.06	86.303	51.124	354.59	103.33	-11.432	351.69	87.483	32.366	428.98	97.827	32.429	137.53	114.06	62.593	156.4	209.51	-23.433	84.133	165.69	0.23731	64.178	197.83	-7.191	62.641	135.03	189.25	114.36	85.199	220.56	134.04	203.97	271.31	164.41	146.59	-274.99	1592.1	339.57	-371.12	1284.7	342.74
211	0.875	-75.098	1273.6	284.45	-160.4	1517.7	479.81	-211.4	1550.7	159.09	-141.45	1848	319.6	-125.24	1015.3	439.41	-127.05	1023.1	172.55	-363.14	1071.1	345.4	-365.58	1065	243.39	-211.17	967.49	517.1	-228.92	976.66	90.046	-206.95	1115.6	508.47	-238.57	1110.1	103.49	-378.44	1031.4	292.74	-285.63	669.65	480.98	-233.09	588.15	446.51	-301.29	584.43	458.65	-213.37	674.12	470.29	-299.64	516.59	448.38	-298.34	524.86	302.74	-393.29	373.66	463.83	-353.42	281.56	416.47	-413.51	306.72	448.74	-336.41	350.52	437.43	-458.08	107.99	400.57	-425.9	114.22	308.1	-531.31	82.745	340.16	-516.83	52.662	311.96	-522.24	52.747	376.37	-334.29	34.852	438.79	-299.99	40.426	313.74	-236.72	52.02	369.95	-141.09	695.14	106.97	-35.222	666.01	94.471	-92.131	619.4	123.71	-92.779	740.72	78.32	-9.3188	567.58	105.85	26.78	577.7	249.38	-23.162	425.36	86.443	60.906	354.62	103.49	-1.5601	350.42	87.498	40.597	428.6	98.106	47.247	137.01	113.81	76.636	156.37	209.31	-7.6466	82.27	165.12	16.444	62.734	197.34	9.2666	61.198	134.46	204.68	117.52	85.365	235.11	137.74	204.27	285.36	169.36	147.1	-269.31	1590.9	338.92	-365.75	1283.6	342.11
212	0.87917	-69.574	1272.2	284.29	-154.92	1516.4	479.33	-205.41	1549.3	158.5	-135.7	1846.8	318.97	-120.06	1014.1	439.41	-121.46	1021.6	172.41	-357.81	1070	345.12	-360.14	1063.8	243.1	-206.2	966.54	517.05	-223.41	975.21	89.921	-201.92	1114.5	508.3	-232.9	1108.6	103.22	-373.09	1030.3	292.47	-282.47	669.24	480.92	-230.39	587.43	446.42	-298.62	584.1	458.66	-210.23	673.32	470.14	-297.56	516.19	448.41	-296.19	524.52	302.69	-391.96	373.72	463.85	-352.46	281.4	416.53	-412.49	306.86	448.72	-335.14	350.3	437.51	-457.89	108.17	400.5	-425.64	114.39	308.05	-531.15	83.067	340.07	-516.71	52.966	311.87	-522.14	53.041	376.27	-334.29	34.872	438.88	-299.9	40.433	313.76	-236.66	51.878	370	-136.29	693.45	107.29	-30.463	664.21	94.638	-87.36	617.72	124.13	-88	738.9	78.383	-4.0657	566.14	106.26	31.64	576.15	249.89	-14.932	423.66	86.58	70.563	354.66	103.65	8.2087	349.18	87.527	48.736	428.21	98.377	61.869	136.61	113.63	90.499	156.47	209.17	7.9504	80.605	164.63	32.433	61.491	196.96	25.504	59.944	134	219.82	120.72	85.589	249.39	141.48	204.62	299.13	174.3	147.64	-263.61	1589.8	338.24	-360.37	1282.5	341.47
213	0.88333	-64.026	1270.8	284.11	-149.42	1515.2	478.83	-199.39	1547.9	157.88	-129.93	1845.5	318.32	-114.87	1013	439.4	-115.86	1020.2	172.29	-352.46	1068.9	344.82	-354.67	1062.5	242.79	-201.22	965.58	516.99	-217.86	973.73	89.791	-196.87	1113.3	508.13	-227.22	1107	102.95	-367.7	1029.1	292.19	-279.27	668.82	480.85	-227.64	586.69	446.34	-295.89	583.76	458.66	-207.05	672.51	470.02	-295.4	515.77	448.44	-293.96	524.16	302.63	-390.56	373.79	463.87	-351.45	281.24	416.58	-411.41	307.01	448.7	-333.81	350.07	437.59	-457.68	108.38	400.44	-425.37	114.57	308	-530.98	83.422	339.98	-516.58	53.305	311.78	-522.04	53.363	376.17	-334.3	34.887	438.96	-299.8	40.446	313.78	-236.59	51.728	370.05	-131.46	691.75	107.55	-25.668	662.39	94.785	-82.57	616.03	124.48	-83.171	737.08	78.423	1.1849	564.68	106.65	36.45	574.55	250.37	-6.7739	421.98	86.715	80.091	354.71	103.83	17.868	347.98	87.573	56.785	427.82	98.64	76.273	136.33	113.53	104.16	156.69	209.1	23.336	79.128	164.25	48.179	60.438	196.67	41.494	58.866	133.64	234.65	123.92	85.865	263.39	145.23	205	312.59	179.18	148.19	-257.9	1588.6	337.55	-354.95	1281.4	340.82
214	0.8875	-58.456	1269.3	283.92	-143.9	1513.9	478.3	-193.37	1546.5	157.24	-124.14	1844.2	317.64	-109.65	1011.8	439.39	-110.25	1018.7	172.19	-347.08	1067.7	344.5	-349.17	1061.1	242.46	-196.22	964.6	516.93	-212.28	972.24	89.653	-191.81	1112.2	507.95	-221.5	1105.4	102.68	-362.29	1027.9	291.9	-276.03	668.39	480.78	-224.83	585.95	446.27	-293.1	583.4	458.65	-203.81	671.7	469.92	-293.16	515.36	448.46	-291.63	523.78	302.58	-389.1	373.86	463.88	-350.39	281.08	416.64	-410.27	307.17	448.69	-332.42	349.84	437.67	-457.45	108.6	400.38	-425.08	114.76	307.96	-530.8	83.813	339.89	-516.44	53.681	311.69	-521.93	53.716	376.07	-334.3	34.898	439.04	-299.7	40.464	313.8	-236.52	51.57	370.1	-126.58	690.05	107.74	-20.827	660.56	94.915	-77.75	614.32	124.76	-78.283	735.26	78.442	6.4427	563.19	107	41.219	572.89	250.83	1.3108	420.32	86.849	89.485	354.77	104.03	27.411	346.81	87.636	64.742	427.41	98.895	90.436	136.14	113.5	117.61	157.01	209.09	38.488	77.829	163.96	63.65	59.561	196.49	57.207	57.949	133.4	249.15	127.12	86.193	277.09	148.96	205.41	325.75	183.99	148.77	-252.17	1587.3	336.83	-349.52	1280.2	340.14
215	0.89167	-52.863	1267.8	283.73	-138.36	1512.6	477.75	-187.33	1545	156.58	-118.34	1842.8	316.94	-104.42	1010.6	439.38	-104.62	1017.3	172.1	-341.68	1066.5	344.17	-343.64	1059.8	242.12	-191.21	963.61	516.86	-206.65	970.74	89.505	-186.72	1111	507.76	-215.76	1103.9	102.4	-356.86	1026.6	291.58	-272.73	667.94	480.71	-221.96	585.21	446.22	-290.24	583.02	458.63	-200.51	670.87	469.84	-290.85	514.93	448.48	-289.19	523.39	302.52	-387.57	373.94	463.89	-349.28	280.92	416.69	-409.07	307.34	448.67	-330.97	349.61	437.74	-457.21	108.85	400.32	-424.77	114.98	307.93	-530.61	84.245	339.81	-516.3	54.098	311.61	-521.81	54.105	375.98	-334.31	34.904	439.11	-299.6	40.488	313.82	-236.44	51.405	370.16	-121.65	688.35	107.87	-15.926	658.74	95.029	-72.885	612.61	124.98	-73.324	733.46	78.443	11.717	561.68	107.33	45.958	571.18	251.28	9.3199	418.68	86.985	98.742	354.82	104.23	36.83	345.67	87.718	72.608	426.99	99.142	104.33	136.05	113.54	130.83	157.41	209.15	53.38	76.693	163.76	78.818	58.845	196.42	72.614	57.179	133.26	263.31	130.27	86.57	290.48	152.66	205.86	338.59	188.69	149.35	-246.42	1586.1	336.09	-344.06	1279.1	339.46
216	0.89583	-47.246	1266.3	283.52	-132.8	1511.3	477.18	-181.27	1543.6	155.91	-112.52	1841.5	316.2	-99.174	1009.4	439.36	-98.988	1015.8	172.03	-336.26	1065.4	343.81	-338.07	1058.4	241.75	-186.19	962.62	516.77	-200.99	969.22	89.347	-181.61	1109.8	507.57	-209.99	1102.4	102.11	-351.39	1025.4	291.24	-269.38	667.48	480.63	-219.02	584.46	446.18	-287.32	582.64	458.61	-197.16	670.03	469.78	-288.44	514.49	448.5	-286.66	522.97	302.47	-385.97	374.02	463.91	-348.12	280.77	416.75	-407.82	307.53	448.65	-329.45	349.38	437.81	-456.95	109.13	400.28	-424.45	115.22	307.91	-530.41	84.721	339.75	-516.15	54.559	311.54	-521.68	54.532	375.9	-334.31	34.906	439.18	-299.5	40.518	313.84	-236.36	51.234	370.22	-116.66	686.66	107.94	-10.953	656.94	95.132	-67.965	610.91	125.15	-68.284	731.68	78.426	17.019	560.16	107.62	50.679	569.45	251.7	17.251	417.06	87.122	107.86	354.87	104.44	46.12	344.57	87.82	80.385	426.56	99.381	117.95	136.02	113.65	143.78	157.88	209.27	67.986	75.704	163.67	93.652	58.274	196.45	87.686	56.538	133.23	277.11	133.37	86.992	303.54	156.29	206.33	351.11	193.26	149.95	-240.66	1584.9	335.32	-338.57	1277.9	338.75
